<?xml version="1.0" encoding="UTF-8"?>
<svg version="1.1" viewBox="0 0 2000 2000" width="500" height="500" xmlns="http://www.w3.org/2000/svg">
<path transform="translate(0)" d="m0 0h2e3v2e3h-2e3z" fill="#FEFEFE"/>
<path transform="translate(939,947)" d="m0 0h122l52 2 41 2 63 5 31 3 66 9 36 7 35 10 18 8 11 7 7 9v2l6 2 7 8 2 9-2 5-5 6-8 4-9 2-84 1-1 48 7 2 1 1v12l-1 14-3 1h-33l-5-1-1-6 1-21 5-2 1-9v-40h-152v85l7 1v12l-1 15h-40l-1-1v-26l4-2h3l-1-84-237 1v83l6 2v27h-41l-1-1v-11l1-15 5-2 1-14v-67l-1-2-155-1v26l1 23 6 2v25l-3 3h-35l-4-1v-26l2-2 4-1v-48l-82-1-13-5-7-8-1-9 4-8 9-6 3-3 7-8 8-6 17-8 35-10 28-6 46-7 42-5 44-4 41-3 64-3z" fill="#7C20CB"/>
<path transform="translate(585,1011)" d="m0 0h838l5 3 6 7 2 9-2 5-5 6-8 4-9 2-84 1-1 48 7 2 1 1v12l-1 14-3 1h-33l-5-1-1-6 1-21 5-2 1-9v-40h-152v85l7 1v12l-1 15h-40l-1-1v-26l4-2h3l-1-84-237 1v83l6 2v27h-41l-1-1v-11l1-15 5-2 1-14v-67l-1-2-155-1v26l1 23 6 2v25l-3 3h-35l-4-1v-26l2-2 4-1v-48l-82-1-13-5-7-8-1-9 4-8 7-5z" fill="#3F2226"/>
<path transform="translate(1256,551)" d="m0 0h21l13 4 11 7 6 7v4l-9 1v2l8 1 11 7 6 9 2 6v8l-2 6-5 8-6 6 1 4 3 4v7l-6 6-9-1-14 9-11 4-11 1-1 3 48 1 3 3 6 20-1 4-14 7-20 9-1 3 7 59 1 12 10 26 10 23 3 7-4 3 1 5 8 19 3 7 3 5 8 3 12 3 4 4v5l-8 7-15 7-10 3h-7l-5-3-4-8-4-14-14-24-4-6-5-2-4-5-11-17-16-25-6-9h-3l-9 16-14 23-6 9h-7l-1 4-7 12-9 15-6 18-4 7h-8l-16-5-14-7-5-5v-6l6-4 15-3 4-4 5-8 8-23-3-1-1-4 11-28 11-29 3-10-2-6 3-8 13-47 1-6-8-11-11-14-8-10-3-7 14-15 2-3 6 1 36 18 4 1-3-3-5-3-5-5-5-8-2-6v-26l-2-12 3-16 5-9 7-7 12-6z" fill="#7B20CA"/>
<path transform="translate(933,469)" d="m0 0 4 2 9 7 26 11 3 2 8-1 4-1h22l16 5 10 5 5 2 2-4 10-6 26-7 13-6 2 9v10l-3 9-5 8-8 7-10 4-7 2 2 8v13l-4 11-4 5-2 2 5 5v8l-6 5-9 1-11 9-15 7-1 5 14-4 14-6 5-3h2l10 16 8 13 1 4-11 10-12 9h-2l1 9 15 51 14 48 1 7-2 1h-77l-37 1-8-1h-16l-10-1 12-42 14-48 6-22-2-4-10-8-12-10 4-8 15-25 5 2 11 5 17 6 4 4 4 8 2 1h14l3-9 1-2h-11l-13-1-2-6-10-3-8-5-5-5-5-8-2-6v-19l2-12-4-2-4-6-1-3v-13l-4-2-10-9-6-10-2-8v-7l4-13z" fill="#7C20CB"/>
<path transform="translate(721,597)" d="m0 0h12l10 4 7 7 4 7 9 2 8 6 4 8v7l-5 10-7 7v3l4 14v14l-7 14-4 5-9 6h-3v5l3-1 5-5 14-11 11-8 10-8 3-3 5 1 2 1 13-9 3-11 4-6 3 1v3h4l2-5 2-4 3-2h4v6l5-2h5l-1 6 7 2-2 5-1 5 3 3-7 8-14 10-10 7-7 5h-2l2 4-1 5-5 3-3 3-28 22h-2l2 8 13 32 4 11-1 5 5 12 13 32-1 3-7 4-33 11-6 1-4-8-7-18-1-2h-2l-10 30-2 3h-14l-20-2-7-2-3-2 5-33v-10l-5-2 3-24 2-23v-8l-13-2-30-4-6-2 1-7-23-5-21-4-4-2-4-9-2-5 1-9 1-1h5l4 3-3-6 1-5h5l6 5h4l2-3 5 1 8 8 4 2 16 2 3-4h10l17 2 19 2-13-5-5-3h-11l-6-5-1-6 3-5 1-3-5-3-5-10-1-4v-16l3-10 4-8 11-13 18-18 6-4 14-5z" fill="#26C26A"/>
<path transform="translate(1372,1245)" d="m0 0 128 2 23 1v56l-3 125-1 19-16 1-106 3h-19l-1-47 1-1h57l1 1 1 8 1 1h11l16-2 1-16v-11l-7-1-78-3-11-1-1-1v-42l1-58 1-33z" fill="#7C20CB"/>
<path transform="translate(640,1196)" d="m0 0h4l1 3 3 37v10l-53 3-57 3h-10l1 26 24-1 79-4h17l1 11 5 95v7l-148 3h-20l-1-1-2-24v-13l42-2 58-2h21v-27l-97 4h-26l-1-6-4-74-1-20v-17l70-5z" fill="#7C20CB"/>
<path transform="translate(1244,1241)" d="m0 0h110l1 25 2 92v28l-18 1h-41l-1-1-3-92-1-13h-51l1 33 3 62v11l-1 1-60 1-1-1-2-92v-54z" fill="#7C20CB"/>
<path transform="translate(909,1239)" d="m0 0 5 1 6 86-1 1-10 1-67 2h-9l3 21 78 1 5 33-1 2h-134l-4-74-3-52v-19l19-1z" fill="#7C20CB"/>
<path transform="translate(668,1203)" d="m0 0h26l20 1 2 2v44l37-2h5l1 1 1 28v14h-44l1 52 48 1v25l-1 18-1 1h-84l-12-1v-168z" fill="#7C20CB"/>
<path transform="translate(933,469)" d="m0 0 4 2 9 7 26 11 3 2 8-1 4-1h22l16 5 10 5 5 2 2-4 10-6 26-7 13-6 2 9v10l-3 9-5 8-8 7-10 4-7 2 2 8v13l-4 11-4 5-2 2 5 5v8l-6 5-9 1-11 9-15 7-3 1h-16l-14-2-10-4-8-6-6-10-2-6v-19l2-12-4-2-4-6-1-3v-13l-4-2-10-9-6-10-2-8v-7l4-13z" fill="#7A4928"/>
<path transform="translate(1189,764)" d="m0 0 6 2 13 6 22 6 15 2h29l18-1 10 27 11 25 3 7-4 3 1 5 8 19 3 7 3 5 8 3 12 3 4 4v5l-8 7-15 7-10 3h-7l-5-3-4-8-4-14-14-24-4-6-5-2-4-5-11-17-16-25-6-9h-3l-9 16-14 23-6 9h-7l-1 4-7 12-9 15-6 18-4 7h-8l-16-5-14-7-5-5v-6l6-4 15-3 4-4 5-8 8-23-3-1-1-4 11-28 11-29z" fill="#26C269"/>
<path transform="translate(970,1238)" d="m0 0h73v13l-2 48-1 1h-37l-1-25h-17l-1 1v111l-3 1h-22l-26-1-1-1-1-141v-5l1-1z" fill="#7C20CB"/>
<path transform="translate(1256,551)" d="m0 0h21l13 4 11 7 6 7v4l-9 1v2l8 1 11 7 6 9 2 6v8l-2 6-5 8-6 6 1 4 3 4v7l-6 6-9-1-14 9-11 4-11 1-1 3h2l-2 8-4 6-3 6-6-4-5-5-9 1-6 2-1-1v-8l2-12 3-1-3-3-5-3-5-5-5-8-2-6v-26l-2-12 3-16 5-9 7-7 12-6z" fill="#F68E52"/>
<path transform="translate(721,597)" d="m0 0h12l10 4 7 7 4 7 9 2 8 6 4 8v7l-5 10-7 7v3l4 14v14l-7 14-4 5-9 6h-3l-1 4-1-2-7 3-8 1h-9l-1 3-9-2v-2l-8-1-14-7h-11l-6-5-1-6 3-5 1-3-5-3-5-10-1-4v-16l3-10 4-8 11-13 18-18 6-4 14-5z" fill="#F68F53"/>
<path transform="translate(1080,1197)" d="m0 0h31v44l-2 125-1 21-1 1h-19l-33-1v-46l3-141 1-2z" fill="#7C20CB"/>
<path transform="translate(1165,1260)" d="m0 0 2 2 1 125-1 1h-44v-50l2-74 1-1z" fill="#7C20CB"/>
<path transform="translate(1256,551)" d="m0 0h21l13 4 11 7 6 7v4l-9 1v2l8 1 11 7 6 9 2 6v8l-2 6-5 8-6 6-3 1h-9l-9-6-6-9-6-16-1-7-19 5-23 2-16 1-3 1-1 3h-2l-1-9 3-16 5-9 7-7 12-6z" fill="#7A4928"/>
<path transform="translate(790,797)" d="m0 0 3 1 12 31 5 12-1 3-7 4-33 11-6 1-4-8-7-18-1-2h-2l-10 30-2 3h-14l-20-2-7-2-3-2 5-33 1-10h33l21-3 16-5 14-7z" fill="#7C20CB"/>
<path transform="translate(721,597)" d="m0 0h12l10 4 7 7 4 7 9 2 8 6 4 8v7l-5 10-7 7-1 2h-2l-2-10-6-8-5-4h-5l-1 3h-2l-2 4-7 6-4 1h-17l-17-1-10 22-1 4-1 13-2 2h-6l-5-3-5-10-1-4v-16l3-10 4-8 11-13 18-18 6-4 14-5z" fill="#7A4929"/>
<path transform="translate(984,529)" d="m0 0 4 1 10 16 5 5 10 5 4-1 7-4 4 1 5 7 8 5h11v2l5 5v8l-6 5-9 1-11 9-15 7-3 1h-16l-14-2-10-4-8-6-6-10-2-6v-19l2-13 12-5z" fill="#F78F53"/>
<path transform="translate(979,1438)" d="m0 0h26l12 3 9 6 5 7 3 12v11l-3 10-7 9-9 5-7 2-11 1h-14l-6-2-1-1-1-8v-48l2-6z" fill="#7C20CB"/>
<path transform="translate(1427,1281)" d="m0 0 42 2 1 1v18l-3 45-1 1-38-1-4-1v-26l2-38z" fill="#FEFEFE"/>
<path transform="translate(1e3 761)" d="m0 0h38l-3 19-7 37-4 18-3 12-2 3-5-1-7-6-5-10-1-4v-47z" fill="#F78F53"/>
<path transform="translate(960,761)" d="m0 0h35l-1 23v29l1 2v13l-4 11-6 8-3 2h-6l-3-5-6-27-6-36-3-19z" fill="#F78F53"/>
<path transform="translate(1088,533)" d="m0 0 3 1 2 5 3 1-1-4h4l1 6-1 3h8l-2 9-8 21-11 23-10 16-6 7-4-1-12-19-5-8 5-5 8-10 6-10 3-9 1-12 2-1 2 1v2h4l-1-5v-7l4-1 2 5 3-1-1-6z" fill="#F68F53"/>
<path transform="translate(913,532)" d="m0 0 3 2v3h7l1 4-1 8 8-2 1 1 1 15 7 14 8 10 4 4-1 6-15 24-4-1-12-17-8-16-9-20-7-21 3-1 4 1v-8l3-3 2 2h3z" fill="#F68E53"/>
<path transform="translate(1308,841)" d="m0 0h3l10 24 3 7 3 5 8 3 12 3 4 4v5l-8 7-15 7-10 3h-7l-5-3-4-8-4-14-14-24-4-6 1-3 25-9z" fill="#7C4A29"/>
<path transform="translate(1167,835)" d="m0 0 16 4 16 5-1 4-7 12-9 15-6 18-4 7h-8l-16-5-14-7-5-5v-6l6-4 15-3 4-4 5-8z" fill="#7C4A2B"/>
<path transform="translate(1148,1196)" d="m0 0h22v14l-2 32-10 1-32 1-2-1-1-12v-33l3-1z" fill="#7C20CB"/>
<path transform="translate(1153,1437)" d="m0 0h5l6 7 18 35 1 2 13-23 10-18 4-3 5 1 1 2 1 12v22l-1 29-7 1-2-1-1-4v-25l1-14-4 4-11 21-7 10-4-1-8-13-11-19-2-1 1 14v17l-1 11-7 1-2-1-1-27v-21l1-16z" fill="#7C20CB"/>
<path transform="translate(907,1437)" d="m0 0h6l6 10 9 20 13 29 1 7-2 1h-6l-5-8-4-7-31-1-7 15-6 1-3-1 1-7 11-25 14-31z" fill="#7C20CB"/>
<path transform="translate(725,1437)" d="m0 0 7 1 8 16 7 16 7 15 6 14v4l-7 1-4-4-5-10v-2h-32l-7 15-2 1h-6l-1-5 10-24 16-35z" fill="#7C20CB"/>
<path transform="translate(605,701)" d="m0 0h5l6 5h4l2-3 5 1 8 8 4 2 16 2 1 3-5 24-9-1-36-7-4-2-4-9-2-5 1-9 1-1h5l4 3-3-6z" fill="#F68E52"/>
<path transform="translate(831,649)" d="m0 0h4v6l5-2h5l-1 6 7 2-2 5-1 5 3 3-7 8-14 10-10 7-7 5-4-1-12-18v-3l13-9 3-11 4-6 3 1v3h4l2-5 2-4z" fill="#F68E52"/>
<path transform="translate(1074,1438)" d="m0 0h40l1 1v8l-32 1v17h26l4 2v7l-1 1-29 1v18l32 1v8l-23 1h-15l-5-2-1-19v-39l1-5z" fill="#7C20CB"/>
<path transform="translate(988,1447)" d="m0 0h11l12 2 6 4 4 8 1 4v14l-4 9-5 4-6 2h-19l-1-1v-45z" fill="#FEFEFE"/>
<path transform="translate(1142,599)" d="m0 0 5 3 6 5 3-1 1-2 4 1 4 11 9 8 14 10 1 3-7 8-8 9h-2l-7-8-10-9-15-10-6-7-2-9v-7l8-2z" fill="#F68F53"/>
<path transform="translate(818,1437)" d="m0 0h15l10 5 4 5-2 4-9-1-8-2h-8l-8 4-5 6-2 6v14l5 10v2l4 2 7 2h7l10-3 7-1 2 2-1 5-9 6-4 1h-18l-10-5-5-5-5-7-3-11v-9l3-12 6-9 8-6z" fill="#7C20CB"/>
<path transform="translate(833,1270)" d="m0 0h41l2 6v20l-2 1-33 2h-12l-2-7-2-20 1-1z" fill="#FEFEFE"/>
<path transform="translate(1353,653)" d="m0 0 3 1 1 4 15-1 1 4v2l5 1-1 5-9 10-9 3-14 2-22 7h-2l-6-20v-4l9-2 17-3 6-4z" fill="#F78F53"/>
<path transform="translate(780,889)" d="m0 0 8 1 2 2v11l7 8 6 9-1 6-6 4-9-1-20-6-9-5-2-4 2-11 4-11h9z" fill="#422428"/>
<path transform="translate(711,893)" d="m0 0 6 1 3 2 1 13 7 8 4 5 1 7-5 5h-7l-15-4-16-7-3-3v-9l5-15 2-1h12z" fill="#412427"/>
<path transform="translate(667,1096)" d="m0 0h30l6 2v25l-3 3h-35l-4-1v-26l2-2z" fill="#26C36A"/>
<path transform="translate(1298,1096)" d="m0 0h31l6 3v12l-1 14-3 1h-33l-5-1-1-6 1-21z" fill="#26C36A"/>
<path transform="translate(802,847)" d="m0 0 1 3-7 24-6 18-6-2-7 1-9 2-6-1 3-25v-7l16-6z" fill="#F78F54"/>
<path transform="translate(1116,1131)" d="m0 0 36 1 2 1v12l-1 15h-40l-1-1v-26z" fill="#26C36A"/>
<path transform="translate(851,1131)" d="m0 0 35 1 1 1v27h-41l-1-1v-11l1-15z" fill="#26C269"/>
<path transform="translate(1254,1437)" d="m0 0 5 1 5 5 10 14 3 4v2h2l2-5 13-18 5-3 5 1 1 3-4 8-10 14-6 9-1 4-1 26-3 2-7-1-1-2-1-28-13-19-6-10-1-5z" fill="#7C20CB"/>
<path transform="translate(1308,841)" d="m0 0h3l10 24 1 6-9 3-10 10-2 1-2 3-3-7-12-21-4-6 1-3 25-9z" fill="#F78F53"/>
<path transform="translate(697,862)" d="m0 0 13 1 19 2 1 3-9 27-2 1-4-2-7 1-2 1h-12l-1-5z" fill="#F78F53"/>
<path transform="translate(1167,835)" d="m0 0 16 4 16 5-1 4-7 12-9 15-2 3-9-8-4-5-3-2-6-2 7-20z" fill="#F78F53"/>
<path transform="translate(708,660)" d="m0 0h9l5 2 4 6 7-1 8 8v5l-4-1-4-5-3-2-4 9-1 4-2 1-3 5-3 1h-9l-9-6-3-5v-11l4-6 4-3z" fill="#F79055"/>
<path transform="translate(790,680)" d="m0 0 5 1 8 11 7 11 3 5-1 5-5 3-3 3-5 4h-2l-4-7-8-9-6-9-2-7 10-8z" fill="#26C169"/>
<path transform="translate(1233,656)" d="m0 0 10 1 19 4 4 3-2 8-4 6-3 6-6-4-5-5-9 1-6 2-1-1v-8l2-12z" fill="#543125"/>
<path transform="translate(1187,756)" d="m0 0 10 3 14 7 22 7 12 2 11 1h14l22-1v4l-4 1-14 1h-29l-19-3-21-6-17-9-2-6z" fill="#402425"/>
<path transform="translate(658,712)" d="m0 0h10v24l-3 18-10-1-6-2 2-11 5-25z" fill="#26C26A"/>
<path transform="translate(993,814)" d="m0 0 2 1v13l-4 11-6 8-3 2h-6l-3-5-3-14v-5l14-1 6-1z" fill="#7C4A2B"/>
<path transform="translate(1006,815)" d="m0 0 4 2 2 6 18 2 1 3-4 17-3 5-5-1-7-6-5-10-1-4z" fill="#7D4B2B"/>
<path transform="translate(708,660)" d="m0 0h9l5 2 4 6 7-1 8 8v5l-4-1-4-5-3-2-4 9-1 4-2 1-3 5-3 1h-9l-9-6-3-5v-11l4-6 4-3zm4 4-10 5-3 6 1 6 7 6 4 2 7-1 6-8v-7l-4-6-2-2z" fill="#7B20C9"/>
<path transform="translate(727,1449)" d="m0 0 2 1 10 25 1 5h-25l1-5 7-15z" fill="#FEFEFE"/>
<path transform="translate(909,1449)" d="m0 0h2l7 19 3 8v4h-23l-1-2 8-18z" fill="#FEFEFE"/>
<path transform="translate(990,606)" d="m0 0 12 1 11 1-2 8-4 4h-12l-5-5-1-2v-6z" fill="#F78F54"/>
<path transform="translate(1237,659)" d="m0 0 9 2 13 4 1 2-4 6-4 2h-6l-7-6-3-5z" fill="#F78F53"/>
<path transform="translate(735,719)" d="m0 0 7 1 1 3-4 6h-2v2l-7 1-5-3-6-9z" fill="#F68E52"/>
<path transform="translate(1015,828)" d="m0 0h14l1 3-3 14-4 1-4-2-3-7z" fill="#F78F53"/>
<path transform="translate(970,828)" d="m0 0h14l1 4-4 10-3 2h-3l-1 2-4-16z" fill="#F78F53"/>
<path transform="translate(1233,656)" d="m0 0 10 1v2l-6 1 1 6 5 6 2 2-10 3-4 1-1-1v-8l2-12z" fill="#472825"/>
<path transform="translate(988,601)" d="m0 0h26l1 6-1 1h-12l-13-1-1-1z" fill="#4F2D28"/>
<path transform="translate(668,713)" d="m0 0h4v16l-3 19-2 6h-2v-7l2-11z" fill="#26C36A"/>
<path transform="translate(666,712)" d="m0 0h2v24l-3 18h-4l4-37z" fill="#422926"/>
<path transform="translate(672,713)" d="m0 0 4 2-2 23-2 15v2l-5-1 3-16z" fill="#49272F"/>
<path transform="translate(729,620)" d="m0 0h2l-2 6-8 14-5 7h-5l2-6 7-9z" fill="#3D2224"/>
<path transform="translate(778,693)" d="m0 0h2l11 14 7 10v2l3 1-2 3h-2l-4-7-8-9-6-9z" fill="#422524"/>
<path transform="translate(742,712)" d="m0 0 2 3-1 6-8-1h-17v-3l21-3z" fill="#5A3525"/>
<path transform="translate(741,648)" d="m0 0h6l-2 5-10 7-2 5-3-1 1-7 6-7z" fill="#7C20CB"/>
<path transform="translate(1263,664)" d="m0 0h3l-2 8-4 6-3 6-6-4-1-4h6v-2l5-5z" fill="#3D2125"/>
<path transform="translate(746,756)" d="m0 0v3l-8 8-9 6-5 1v-3l12-8z" fill="#432624"/>
<path transform="translate(712,673)" d="m0 0 5 1 1 10-5 1-5-5 2-5z" fill="#563225"/>
<path transform="translate(743,661)" d="m0 0 5 1 2 3-1 6-4 2-5-6 1-5z" fill="#563225"/>
<path transform="translate(741,632)" d="m0 0 2 1-2 5h-2l-2 4-4 4-5 1 2-5 5-6h3l1-3z" fill="#482924"/>
<path transform="translate(999,576)" d="m0 0 5 2-2 5-3 3h-6l-4-3v-2l9 2 1-4-11 1v-2z" fill="#6E402D"/>
<path transform="translate(1239,632)" d="m0 0 11 1 3 2-1 2-8-2 1 4 8-1-2 4h-7l-3-4v-2h-2z" fill="#643C25"/>
<path transform="translate(786,692)" d="m0 0h3l12 17-1 2h-2l-6-8-7-9z" fill="#754626"/>
<path transform="translate(941,792)" d="m0 0 2 4 3 22-3-1-2-6z" fill="#6F3655"/>
<path transform="translate(1012,559)" d="m0 0 4 1v7l-2 3-4-1-1-5 1-4z" fill="#532E2D"/>
<path transform="translate(1046,838)" d="m0 0h1l-1 13-3 13h-3l5-25z" fill="#682D65"/>
<path transform="translate(1268,618)" d="m0 0 3 1 1 5-2 4-3 1-3-2 1-5z" fill="#533025"/>
<path transform="translate(1236,610)" d="m0 0 4 2 1 5-3 3h-4l-1-5z" fill="#502E27"/>
<path transform="translate(980,554)" d="m0 0 4 2 1 5-2 3h-5l-1-6z" fill="#533028"/>
<path transform="translate(1323,852)" d="m0 0 4 4 5 11v5l-3-1-6-16z" fill="#5A2E4E"/>
<path transform="translate(741,685)" d="m0 0h2l-2 5-5 2h-6l-2-1v-3l12-2z" fill="#693E26"/>
<path transform="translate(992,535)" d="m0 0 5 5 2 5h2l4 4 2 1v2l2 1-6-1-8-9-3-5z" fill="#4F2D24"/>
<path transform="translate(1252,663)" d="m0 0 11 1-1 5-4 5h-2v2l-7 1-1-2 8-3 3-6-7-2z" fill="#7A4A27"/>
<path transform="translate(738,772)" d="m0 0 4 1-5 5-3 2-5-1 5-5z" fill="#3F2324"/>
<path transform="translate(733,669)" d="m0 0 5 2 3 4v5l-4-1-4-5z" fill="#623929"/>
<path transform="translate(1190,887)" d="m0 0 1 3-8 15h-3l2-5z" fill="#7D3C63"/>
<path transform="translate(1014,825)" d="m0 0h16v4l-12-1z" fill="#5F3825"/>
<path transform="translate(999,687)" d="m0 0 4 1 1 6-5 1-2-1v-6z" fill="#3F2324"/>
<path transform="translate(999,668)" d="m0 0 5 2-1 5h-6v-6z" fill="#412424"/>
<path transform="translate(806,873)" d="m0 0h1v7l-3 10-3 2 1-6z" fill="#753D4C"/>
<path transform="translate(997,649)" d="m0 0h6l1 5-1 1h-5l-1-1z" fill="#3E2324"/>
<path transform="translate(997,630)" d="m0 0h6l1 3-3 4-4-2z" fill="#432624"/>
<path transform="translate(676,912)" d="m0 0h2l2 16h-3z" fill="#4F2546"/>
<path transform="translate(718,717)" d="m0 0h9v1l8 1v1h-17z" fill="#7A482C"/>
<path transform="translate(994,579)" d="m0 0h5l-1 5-6-1-2-3z" fill="#F78F53"/>
<path transform="translate(989,564)" d="m0 0 4 1 1 4-6 2z" fill="#5D3725"/>
<path transform="translate(1243,635)" d="m0 0 2 4 8-1-2 4h-7l-2-4z" fill="#7A4A27"/>
</svg>
